<?xml version="1.0" encoding="utf-8"?>
<!-- Generator: Adobe Illustrator 26.0.0, SVG Export Plug-In . SVG Version: 6.00 Build 0)  -->
<svg version="1.1" id="Camada_1" xmlns="http://www.w3.org/2000/svg" xmlns:xlink="http://www.w3.org/1999/xlink" x="0px" y="0px"
	 viewBox="0 0 1280 1024" style="enable-background:new 0 0 1280 1024;" xml:space="preserve">
<style type="text/css">
	.st0{fill:#FFFFFF;}
</style>
<g>
	<path d="M405.65,529.59c-5.3-15.51-10.82-30.41-15.48-45.58c-5.96-19.4-7.87-39.51-8.48-59.73c-0.71-23.28-0.58-46.52,4.04-69.47
		c0.81-4.03,1.87-8.23,3.86-11.76c8.41-14.97,20.12-27.09,35.4-34.57c13.76-6.74,28.16-12.51,42.8-17
		c18.38-5.64,37.14-10.32,56.01-13.99c21.03-4.09,42.27-7.56,63.58-9.53c25.51-2.36,50.96,0.12,76.23,4.7
		c16.11,2.92,32.48,4.65,47.73,11.12c15.07,6.39,30.1,12.9,44.95,19.79c4.78,2.22,8.99,5.72,13.34,8.82
		c9.49,6.76,14.87,16.9,19.21,27.09c2.67,6.27,2.02,14.02,2.61,21.13c0.5,5.97,0.63,11.97,0.99,17.95c0.07,1.11,0.47,2.2,0.79,3.63
		c6.1-2.36,11.73-5.02,17.63-6.75c23.74-6.97,45.8-3.98,65.41,12.07c2.38,1.95,4.74,3.94,7.11,5.89c6.3,5.19,9.63,11.93,11.92,19.82
		c8,27.66-1.41,51.26-15.46,74.19c-8.83,14.41-19.7,27.09-31.11,39.35c-3.62,3.89-8.37,6.7-12.5,10.14
		c-3.32,2.76-6.47,5.73-9.65,8.56c10.31,4.58,20.53,8.15,29.78,13.45c12.82,7.34,25.27,15.45,37.2,24.18
		c11.32,8.29,17.7,20.57,23.22,33.35c7.9,18.29,10.56,36.99,5.41,56.41c-1.13,4.27-3.4,8.29-5.44,12.27
		c-9.91,19.23-22.72,36.31-39.1,50.34c-7.56,6.48-15.92,12.22-24.55,17.17c-15.32,8.77-31.02,16.89-46.75,24.88
		c-8.39,4.26-17.25,7.58-25.8,11.53c-28.22,13.03-58.34,20.49-87.69,30.19c-7.43,2.46-15.69,3.01-23.6,3.27
		c-29.15,0.95-58.31,1.73-87.48,1.93c-16.09,0.11-32.23-0.61-48.28-1.85c-10.93-0.84-21.78-3.03-32.6-4.98
		c-20.9-3.76-40.79-10.8-60.3-19.13c-14.9-6.36-30.27-11.68-44.89-18.62c-20.28-9.64-40.39-19.76-59.94-30.81
		c-19.94-11.27-37.45-26.15-52.87-43.1c-10.12-11.12-12.72-25.65-13.1-40.38c-0.25-9.59,1.9-18.69,5.52-27.68
		c10.58-26.28,25.97-48.87,48.38-66.25c20.74-16.09,43.85-27.79,68.38-36.76C396.82,533.1,401.51,531.19,405.65,529.59z
		 M408.16,535.19c-18.67,4.9-35.36,14.35-50.9,25.67c-20.45,14.89-39.67,30.79-50.87,54.97c-5.04,10.88-8.41,21.88-11.54,33.24
		c-4.98,18.06-0.74,34.33,9.59,48.97c6.18,8.75,13.1,17.42,21.26,24.21c15.85,13.19,32.65,25.25,49.35,37.37
		c14.67,10.64,30.91,17.44,49.03,20.1c12.87,1.88,25.41,6.08,38.28,7.96c19.78,2.9,39.69,5.04,59.61,6.88
		c18.18,1.68,36.42,3.04,54.66,3.67c38.83,1.35,77.39-2.69,115.88-7.2c14.22-1.66,28.64-3.26,42.37-7.09
		c23.27-6.48,46.33-13.97,68.97-22.41c23.15-8.63,44.82-20.63,65.4-34.41c6.23-4.17,12.38-8.73,17.59-14.08
		c6.37-6.55,12.09-13.84,17.43-21.29c9.39-13.11,16.48-27.23,15.35-44.15c-0.98-14.74-5.74-28.35-13.08-40.94
		c-3.71-6.36-7.95-12.79-13.28-17.75c-17.65-16.43-37.8-28.8-60.79-36.56c-7.53-2.54-13.64-3.66-18.99,3.3
		c-0.23,0.31-0.45,0.63-0.99,1.4c2.7,1.19,5.18,2.3,7.67,3.37c7.85,3.38,15.99,6.2,23.49,10.23c18.36,9.86,28.22,26.69,35.1,45.66
		c4.34,11.96,4.22,24.47,3.43,36.87c-1.56,24.56-9.67,46.09-29.24,62.26c-11.26,9.3-23.18,17.42-35.74,24.85
		c-17.72,10.49-36.08,19.33-55.61,25.64c-8.39,2.71-16.87,5.32-25.49,7.12c-5,1.04-10.36,0.4-15.55,0.51
		c-0.09-0.59-0.18-1.19-0.27-1.78c1.59-0.74,3.11-1.74,4.77-2.17c26.31-6.73,50.1-19.05,72.75-33.71
		c6.3-4.08,12.85-8.47,17.57-14.16c13.28-15.99,24.61-33.26,29.1-54.21c3.65-17.05,5.65-34.06,0.33-51.11
		c-1.13-3.63-2.78-7.09-4.56-11.55c-1.9,2.68-3.09,4.3-4.21,5.96c-4.33,6.39-7.92,13.47-13.09,19.07
		c-17.72,19.17-36.1,37.74-58.15,51.97c-6.43,4.15-13.3,7.77-20.35,10.72c-23.34,9.8-48.02,10.62-72.38,7.14
		c-25.01-3.57-48.51-13.45-71.9-23.03c-5.43-2.23-11.27-3.7-17.07-4.71c-5.4-0.95-10.98-0.98-16.49-1.14
		c-16.43-0.47-32.16-3.83-47.23-10.57c-10.29-4.61-20.01-10.14-28.15-17.94c-8.09-7.75-15.44-16.27-23.27-24.3
		c-14.78-15.17-28.76-30.98-39.85-49.16C421.37,557.84,414.91,546.61,408.16,535.19z M568.56,663.14c0.05-0.24,0.09-0.48,0.14-0.72
		c6.64-0.65,13.35-0.88,19.9-2.03c17.93-3.15,35.02-8.47,48.31-21.99c26.33-26.79,49.01-56.14,63.4-91.4
		c10.64-26.07,14.65-53.07,12.16-81.07c-1.51-16.92-9.38-27.25-24.51-30.63c-20.65-4.61-41.4-9.39-62.68-9.34
		c-28.3,0.07-56.56,0.35-84.71-3.49c-18.52-2.53-37.1-4.47-55.16-9.74c-12.66-3.69-25.54-6.6-38.2-10.27
		c-8.41-2.43-16.65-5.48-24.89-8.47c-3.58-1.3-5.92-0.69-6.93,3.19c-1.22,4.65-2.87,9.25-3.49,13.99
		c-2.35,17.98-1.29,36.01,1.38,53.79c4.9,32.64,13.38,64.29,29.12,93.59c8.34,15.53,15.07,32.09,26.71,45.55
		c13.53,15.65,27.65,30.78,41.56,46.1c1.06,1.16,2.43,2.07,3.74,2.96c6.21,4.19,13.18,5.57,20.54,6.19
		C546.18,660.3,557.36,661.84,568.56,663.14z M723.53,369.66c1.05-2.1,1.63-4.31,3-5.78c2.67-2.87,5.98-5.13,8.63-8.01
		c1.3-1.41,2.46-3.64,2.44-5.49c-0.08-8.09-1.51-15.58-6.8-22.47c-6.35-8.27-12.51-16.41-22-21.2c-6.34-3.2-12.68-6.4-19.15-9.31
		c-14.65-6.59-29.96-12.19-45.92-12.46c-30.25-0.51-60.6-2.88-90.77,2.28c-9.13,1.56-18.54,1.44-27.63,3.16
		c-16.57,3.14-33.2,6.2-48.91,12.87c-5.71,2.43-11.99,3.51-17.71,5.92c-12.36,5.21-24.29,11.29-32.91,22.18
		c-5.37,6.78-8.38,14.43-6.96,23.23c2.34,14.46,12.61,22.64,24.06,30.81c0.98-2.25,1.59-3.99,2.46-5.59
		c1.66-3.03,2.85-6.7,5.32-8.82c8.12-6.99,16.1-14.28,26.63-17.75c6.88-2.27,13.56-5.14,20.39-7.58
		c24.08-8.59,48.99-13.11,74.44-14.42c11.29-0.58,22.64-0.34,33.96-0.16c31.23,0.48,61.72,4.39,89.94,19.33
		c9.29,4.92,18.51,9.77,25.68,17.73C722.46,368.95,723.42,369.57,723.53,369.66z M578.51,406.47c2.79,0.24,4.17,0.45,5.55,0.45
		c10.88,0.02,21.76,0.06,32.63-0.03c35.61-0.29,70.55-4.42,103.73-18.59c7.17-3.06,7.8-5.57,2.38-11.36
		c-14.02-15-31.79-21.57-51.68-22.21c-9.93-0.32-20.04,0.59-29.87,2.21c-10.66,1.76-21.5,3.9-31.48,7.88
		c-9.68,3.85-18.97,9.84-15.39,23.41c0.04,0.14,0.01,0.29,0.01,0.44c0.14,5.06-1.39,9.02-6.32,11.42
		C585.04,401.56,582.4,403.82,578.51,406.47z M735.74,593.42c0.32,0.45,0.65,0.89,0.97,1.34c4.22-2.09,8.67-3.82,12.62-6.33
		c14.47-9.19,29.16-18.1,43.04-28.13c19.21-13.89,38.14-28.32,53.61-46.6c11.75-13.89,23.61-27.8,27.95-46.33
		c4.03-17.22,7.23-34.22-0.65-51.44c-5.85-12.79-15.79-19.38-28.92-21.66c-15.05-2.61-29.01,1.34-42.41,8.1
		c-8.05,4.06-8.95,5.67-7.22,15.5c1.06-0.67,2.01-1.25,2.92-1.87c15.5-10.61,31.69-11.95,48.47-3.41c2.24,1.14,4.53,2.91,5.87,4.99
		c6.7,10.4,9.22,21.82,5.89,33.9c-3.61,13.13-7.68,26.09-17.53,36.34c-4.72,4.91-8.65,10.6-12.78,16.06
		c-11.35,15.04-26.32,26.22-40.49,38.19c-6.29,5.31-13.47,9.74-20.74,13.64C750.75,564.08,745.01,580.11,735.74,593.42z
		 M774.24,527.21c1.11-0.1,1.57-0.01,1.9-0.19c2.03-1.12,4.06-2.26,6.04-3.46c17.2-10.41,31.75-24.04,45.34-38.68
		c9.65-10.39,17.34-22.3,22.8-35.52c8.63-20.88-3.58-39.31-25.9-39.36c-10.23-0.03-19.41,3.05-27.46,9.33
		c-1.35,1.06-2.58,3.1-2.71,4.78c-0.86,10.92-1.21,21.88-2.08,32.8c-1.41,17.69-5.07,34.9-11.33,51.53
		C778.56,514.54,776.52,520.72,774.24,527.21z M496.82,397.98c2.8,1.18,4.38,2.17,6.07,2.49c6.54,1.23,13.12,2.25,19.68,3.35
		c14.79,2.49,29.07,1.58,42.76-5.43c10.72-5.49,11.93-6.99,10.04-19.04c-0.84-5.32,0.61-9.54,4.4-13.03
		c8.26-7.6,17.49-13.97,28.63-15.75c17.87-2.85,35.89-4.72,53.85-6.99c1.42-0.18,2.85-0.24,4.69-0.39c-0.7-0.81-0.86-1.19-1.07-1.21
		c-4.31-0.56-8.65-0.9-12.93-1.64c-27.58-4.72-54.97-3.72-81.8,4.19c-11.3,3.33-22.2,8.27-32.94,13.22
		c-5.38,2.48-5.77,7.21-2.22,11.6c5.56,6.87,4.89,11.37-3.04,15.48c-5.25,2.72-10.9,4.71-16.48,6.72
		C510.42,393.74,504.24,395.57,496.82,397.98z M645.56,412.48c-0.03-0.75-0.06-1.5-0.08-2.25c-3.39,0-6.78,0.04-10.16-0.01
		c-24.81-0.38-49.63-0.51-74.43-1.27c-14.92-0.46-29.93-1-44.67-3.13c-19.04-2.76-38.05-6.35-56.69-11.09
		c-13.72-3.49-27.93-6.95-38.85-17.26c-4.22-3.99-8.86-7.68-12.42-12.2c-8.76-11.12-8.14-21.54,1.41-31.89
		c9.17-9.95,20.1-17.79,32-23.81c20.46-10.36,42.58-15.99,64.96-20.16c20.92-3.9,42.04-6.71,63.06-10.07
		c1.49-0.24,2.87-1.13,4.3-1.72c-0.08-0.46-0.17-0.91-0.25-1.37c-1.47-0.13-2.98-0.53-4.41-0.35c-19.13,2.38-38.45,3.79-57.32,7.52
		c-29.69,5.87-57.89,16.6-84.83,30.61c-11.7,6.08-21.86,13.84-28.94,25.2c-6.93,11.13-4.33,27.67,5.59,35.94
		c11.64,9.7,24.8,16.64,39.01,21.64c48.7,17.13,98.93,21.68,150.09,18.54c7.11-0.44,14.03-0.87,21.32-0.19
		C624.51,416.09,635.1,413.53,645.56,412.48z M777.19,437.07c-0.47,0.07-0.94,0.15-1.4,0.22c-0.28,1.4-0.6,2.8-0.83,4.21
		c-1.37,8.45-2.03,17.09-4.24,25.32c-4.2,15.62-9.11,31.06-14.02,46.47c-9.28,29.12-22.22,56.49-40.06,81.29
		c-9.11,12.66-19.03,24.72-28.55,37.07c-1.35,1.76-2.56,3.63-3.83,5.45c0.31,0.28,0.62,0.57,0.93,0.85
		c3.06-2.65,6.26-5.15,9.15-7.98c11.2-10.98,23.47-21.12,33.14-33.33c13.62-17.2,25.09-36.05,32.55-57.09
		c10.66-30.03,18.41-60.61,18.57-92.74C778.61,443.56,777.68,440.32,777.19,437.07z M701.99,401.3c0.15,0.56,0.29,1.12,0.44,1.68
		c10.13-2.81,20.76-4.47,30.25-8.73c11.44-5.13,22.05-12.22,32.71-18.96c4.23-2.67,7.91-6.4,11.39-10.09
		c6.97-7.38,8.32-16.49,5.17-25.69c-3.4-9.92-8.87-19.09-18.2-24.42c-13.32-7.6-27.13-14.37-40.77-21.39
		c-1.17-0.6-2.71-0.46-4.66-0.75c10.42,5.61,20.45,10.22,29.62,16.15c12.92,8.36,24.91,18.15,26.94,34.99
		c0.54,4.49,0.08,10.45-2.47,13.67c-4.71,5.93-10.76,11.25-17.23,15.19c-13.97,8.52-28.53,16.07-42.92,23.88
		C708.99,398.61,705.42,399.83,701.99,401.3z M752.72,624.28c22.01,1.35,70.94-30.44,80.32-51.32c-7.54-3.18-11.98-2.12-16.65,3.97
		c-0.53,0.69-1.09,1.37-1.67,2.02c-15.05,16.7-32.28,30.52-52.5,40.4C759.37,620.74,756.59,622.26,752.72,624.28z M641.55,668.31
		c14.09-0.75,27.97-1.42,40.96-8.49c14.28-7.77,25.74-18.18,34.87-31.45c0.86-1.24,0.97-3.01,1.42-4.53
		c-0.42-0.29-0.84-0.57-1.26-0.86c-1.52,1.36-3.19,2.58-4.54,4.09c-10.84,12.1-22.52,23.14-37.25,30.4
		c-0.91,0.45-1.6,1.38-2.37,2.11c-0.87,0.83-1.59,2.22-2.58,2.44C661.07,664.23,651.31,666.24,641.55,668.31z M716.79,292.32
		c-12.38-10.07-82.35-22.02-92.76-15.57C655.43,279.09,686.46,283.65,716.79,292.32z M746.61,593.74c0.33,0.53,0.66,1.06,0.99,1.59
		c14.97-8.39,29.95-16.77,44.92-25.16c-0.21-0.38-0.42-0.77-0.63-1.15C776.79,577.26,761.7,585.5,746.61,593.74z"/>
	<path class="st0" d="M774.24,527.21c2.28-6.49,4.32-12.67,6.61-18.75c6.26-16.63,9.92-33.84,11.33-51.53
		c0.87-10.92,1.22-21.88,2.08-32.8c0.13-1.68,1.36-3.73,2.71-4.78c8.05-6.28,17.23-9.36,27.46-9.33
		c22.33,0.06,34.53,18.49,25.9,39.36c-5.46,13.21-13.16,25.13-22.8,35.52c-13.59,14.63-28.14,28.27-45.34,38.68
		c-1.98,1.2-4.01,2.34-6.04,3.46C775.81,527.2,775.35,527.11,774.24,527.21z"/>
	<path class="st0" d="M701.99,401.3c3.43-1.47,7-2.69,10.27-4.46c14.39-7.81,28.95-15.36,42.92-23.88
		c6.47-3.94,12.53-9.26,17.23-15.19c2.56-3.22,3.01-9.18,2.47-13.67c-2.04-16.84-14.02-26.63-26.94-34.99
		c-9.18-5.93-19.2-10.54-29.62-16.15c1.95,0.29,3.49,0.15,4.66,0.75c13.65,7.02,27.45,13.78,40.77,21.39
		c9.33,5.33,14.81,14.5,18.2,24.42c3.15,9.2,1.8,18.31-5.17,25.69c-3.48,3.68-7.16,7.42-11.39,10.09
		c-10.66,6.73-21.27,13.83-32.71,18.96c-9.49,4.26-20.12,5.92-30.25,8.73C702.28,402.42,702.14,401.86,701.99,401.3z"/>
	<path class="st0" d="M716.79,292.32c-30.33-8.67-61.36-13.23-92.76-15.57C634.44,270.3,704.42,282.25,716.79,292.32z"/>
	<path class="st0" d="M746.61,593.74c15.09-8.24,30.19-16.48,45.28-24.72c0.21,0.38,0.42,0.77,0.63,1.15
		c-14.97,8.39-29.95,16.77-44.92,25.16C747.27,594.8,746.94,594.27,746.61,593.74z"/>
	<path d="M403.18,765.84c-1.43-0.11-3.04,0.18-4.26-0.39c-12.9-5.95-25.64-12.13-37.02-20.88c-9.92-7.62-20.56-14.32-30.07-22.41
		c-6.79-5.77-12.57-12.89-18.16-19.92c-4.5-5.66-8.41-11.89-11.92-18.24c-6.07-10.98-5.65-22.67-2.69-34.52
		c4.39-17.6,12.03-33.34,22.05-48.64c14.7-22.43,35.66-35.78,58.34-47.58c1.56-0.81,3.34-1.19,5.32-1.08
		c-3.27,2.69-6.55,5.35-9.8,8.06c-22.93,19.09-43.95,39.75-52.79,69.6c-4.89,16.5-4.18,32.91,0.86,49.59
		c6.89,22.78,19.99,40.69,38.61,54.72c12.29,9.26,25.03,17.92,37.54,26.88c1.55,1.11,2.99,2.38,4.48,3.57
		C403.51,765.02,403.35,765.43,403.18,765.84z"/>
	<path d="M852.76,566.13c4.38,2.1,9.28,3.52,13.04,6.43c17.25,13.36,31.41,29.31,40.07,49.86c8.69,20.63,5.44,40.58-3.67,59.69
		c-4.39,9.21-10.64,17.91-17.59,25.38c-7.59,8.15-16.94,14.65-25.62,21.75c-1.32,1.08-3.17,1.5-4.77,2.23
		c0.94-1.81,1.55-3.94,2.87-5.4c10.78-11.81,20.53-24.22,25.1-40.01c1.58-5.45,3.71-10.74,5.39-16.16
		c9.24-29.78,3.89-56.91-15.29-81.13c-5.48-6.92-12.25-12.79-18.43-19.14c-0.68-0.7-1.3-1.46-1.95-2.19
		C852.19,567,852.48,566.56,852.76,566.13z"/>
	<path d="M601.96,685.87c-1.77,0.52-3.53,1.43-5.32,1.51c-19.86,0.8-39.74,2.21-59.59,1.93c-13.85-0.2-27.75-2.28-41.49-4.4
		c-14.57-2.25-29.12-4.95-43.39-8.63c-6.38-1.64-12.3-5.72-17.94-9.44c-5.81-3.82-6.55-10.52-2.07-15.95c2.17-2.64,5-4.96,7.96-6.67
		c10.23-5.92,21.3-9.09,33.16-9.21c1.01-0.01,2.03,0.03,3.04,0.16c0.39,0.05,0.74,0.38,2.23,1.18c-2.62,1.22-4.51,2.15-6.45,2.99
		c-5.98,2.58-12.06,4.95-17.92,7.76c-3.57,1.71-5.91,7.57-4.76,11.23c0.32,1.02,1.61,1.89,2.64,2.51
		c7.53,4.56,15.99,5.63,24.48,6.96c12.31,1.93,24.45,5.02,36.79,6.64c16.96,2.23,34.03,3.54,51.05,5.29
		c11.81,1.22,23.61,2.5,35.41,3.8c0.66,0.07,1.28,0.54,1.92,0.83C601.78,684.86,601.87,685.36,601.96,685.87z"/>
</g>
</svg>
